<?xml version="1.0" standalone="no"?>
<!DOCTYPE svg PUBLIC "-//W3C//DTD SVG 1.1//EN"
"http://www.w3.org/Graphics/SVG/1.1/DTD/svg11.dtd">
<svg width="100%" height="100%" version="1.1"
xmlns="http://www.w3.org/2000/svg">
<g fill-rule="evenodd"><path d="M 0,400 L 400,400 L 400,0 L 0,0 z " style="fill-opacity:1.0;fill:none;stroke:rgb(0,0,0);stroke-width:5"/></g>
<g fill-rule="evenodd"><path d="M 93,93 L 93,66 L 120,66 L 120,93 z " style="fill-opacity:1.0;fill:rgb(153,153,153)"/></g>
<g fill-rule="evenodd"><path d="M 106,80 z " style="fill-opacity:0.8;fill:none;stroke:rgb(0,0,255);stroke-width:2"/></g>
<g fill-rule="evenodd"><path d="M 80,173 L 120,146 L 120,186 z " style="fill-opacity:1.0;fill:rgb(153,153,153)"/></g>
<g fill-rule="evenodd"><path d="M 93,160 z " style="fill-opacity:0.8;fill:none;stroke:rgb(0,0,255);stroke-width:2"/></g>
<g fill-rule="evenodd"><path d="M 333,253 L 333,226 L 360,226 L 373,240 L 360,253 z " style="fill-opacity:1.0;fill:rgb(153,153,153)"/></g>
<g fill-rule="evenodd"><path d="M 346,240 z " style="fill-opacity:0.8;fill:none;stroke:rgb(0,0,255);stroke-width:2"/></g>
<g fill-rule="evenodd"><path d="M 186,366 L 186,206 L 213,180 L 213,393 z " style="fill-opacity:1.0;fill:rgb(80,80,80)"/></g>
<g fill-rule="evenodd"><path d="M 200,286 L 200,113 z " style="fill-opacity:0.8;fill:none;stroke:rgb(0,0,255);stroke-width:2"/></g>
<text style="fill:rgb(0,0,0);font-family:Arial;font-size:15px" x="200" y="286">1 m/s</text>
<circle cx="66" cy="200" r="5" style="fill-opacity:0.5;fill:rgb(153,204,0);stroke:rgb(153,204,0);stroke-width:2"/>
<polyline points="92,204 66,200 83,179" style="fill-opacity:0.8;fill:none;stroke:rgb(153,204,0);stroke-width:2;fill:none"/>
<text style="fill:rgb(0,0,0);font-family:Arial;font-size:15px" x="66" y="200"><tspan x="66" y="200">2 m/s</tspan><tspan x="66" y="210">1 rad/s</tspan></text>
<circle cx="133" cy="26" r="5" style="fill-opacity:0.5;fill:rgb(153,204,0);stroke:rgb(153,204,0);stroke-width:2"/>
<polyline points="112,43 133,26 137,52" style="fill-opacity:0.8;fill:none;stroke:rgb(153,204,0);stroke-width:2;fill:none"/>
<text style="fill:rgb(0,0,0);font-family:Arial;font-size:15px" x="133" y="26"><tspan x="133" y="26">2 m/s</tspan><tspan x="133" y="36">1 rad/s</tspan></text>
<circle cx="66" cy="333" r="5" style="fill-opacity:0.5;fill:rgb(153,204,0);stroke:rgb(153,204,0);stroke-width:2"/>
<polyline points="83,312 66,333 57,308" style="fill-opacity:0.8;fill:none;stroke:rgb(153,204,0);stroke-width:2;fill:none"/>
<text style="fill:rgb(0,0,0);font-family:Arial;font-size:15px" x="66" y="333"><tspan x="66" y="333">2 m/s</tspan><tspan x="66" y="343">1 rad/s</tspan></text>
</svg>
