<?xml version="1.0" standalone="no"?>
<!DOCTYPE svg PUBLIC "-//W3C//DTD SVG 1.1//EN"
"http://www.w3.org/Graphics/SVG/1.1/DTD/svg11.dtd">
<svg width="400" height="400" version="1.1"
xmlns="http://www.w3.org/2000/svg">
<g fill-rule="evenodd"><path d="M 0,400 L 400,400 L 400,0 L 0,0 z " style="fill-opacity:1.0;fill:none;stroke:rgb(0,0,0);stroke-width:5"/></g>
<g fill-rule="evenodd"><path d="M 173,213 L 226,186 L 226,213 z " style="fill-opacity:1.0;fill:rgb(153,153,153)"/></g>
<g fill-rule="evenodd"><path d="M 200,200 L 333,200 L 333,133 z " style="fill-opacity:0.8;fill:none;stroke:rgb(0,0,255);stroke-width:2"/></g>
<text style="fill:rgb(0,0,0);font-family:Arial;font-size:15px" x="200" y="200">0.5 m/s</text>
<g fill-rule="evenodd"><path d="M 233,233 L 233,266 L 200,266 L 200,233 z " style="fill-opacity:1.0;fill:rgb(80,80,80)"/></g>
<g fill-rule="evenodd"><path d="M 200,266 z " style="fill-opacity:0.8;fill:none;stroke:rgb(0,0,255);stroke-width:2"/></g>
<circle cx="386" cy="266" r="5" style="fill-opacity:0.5;fill:rgb(153,204,0);stroke:rgb(153,204,0);stroke-width:2"/>
<polyline points="393,240 386,266 367,247" style="fill-opacity:0.8;fill:none;stroke:rgb(153,204,0);stroke-width:2;fill:none"/>
<text style="fill:rgb(0,0,0);font-family:Arial;font-size:15px" x="386" y="266"><tspan x="386" y="266">2 m/s</tspan><tspan x="386" y="276">1 rad/s</tspan></text>
<circle cx="13" cy="13" r="5" style="fill-opacity:0.5;fill:rgb(153,204,0);stroke:rgb(153,204,0);stroke-width:2"/>
<polyline points="22,38 13,13 39,17" style="fill-opacity:0.8;fill:none;stroke:rgb(153,204,0);stroke-width:2;fill:none"/>
<text style="fill:rgb(0,0,0);font-family:Arial;font-size:15px" x="13" y="13"><tspan x="13" y="13">2 m/s</tspan><tspan x="13" y="23">1 rad/s</tspan></text>
</svg>
