<?xml version="1.0" standalone="no"?>
<!DOCTYPE svg PUBLIC "-//W3C//DTD SVG 1.1//EN"
"http://www.w3.org/Graphics/SVG/1.1/DTD/svg11.dtd">
<svg width="400" height="400" version="1.1"
xmlns="http://www.w3.org/2000/svg">
<g fill-rule="evenodd"><path d="M 0,400 L 400,400 L 400,0 L 0,0 z " style="fill-opacity:1.0;fill:none;stroke:rgb(0,0,0);stroke-width:5"/></g>
<g fill-rule="evenodd"><path d="M 186,133 L 200,80 L 226,106 L 266,66 L 280,146 z " style="fill-opacity:1.0;fill:rgb(153,153,153)"/></g>
<g fill-rule="evenodd"><path d="M 200,133 L 200,266 z " style="fill-opacity:0.8;fill:none;stroke:rgb(0,0,255);stroke-width:2"/></g>
<text style="fill:rgb(0,0,0);font-family:Arial;font-size:15px" x="200" y="133">0.5 m/s</text>
<g fill-rule="evenodd"><path d="M 40,333 L 40,306 L 66,306 L 66,333 z " style="fill-opacity:1.0;fill:rgb(153,153,153)"/></g>
<g fill-rule="evenodd"><path d="M 53,320 L 146,320 z " style="fill-opacity:0.8;fill:none;stroke:rgb(0,0,255);stroke-width:2"/></g>
<text style="fill:rgb(0,0,0);font-family:Arial;font-size:15px" x="53" y="320">0.8 m/s</text>
<g fill-rule="evenodd"><path d="M 306,146 L 360,120 L 360,146 z " style="fill-opacity:1.0;fill:rgb(153,153,153)"/></g>
<g fill-rule="evenodd"><path d="M 333,133 z " style="fill-opacity:0.8;fill:none;stroke:rgb(0,0,255);stroke-width:2"/></g>
<circle cx="66" cy="200" r="5" style="fill-opacity:0.5;fill:rgb(153,204,0);stroke:rgb(153,204,0);stroke-width:2"/>
<polyline points="89,213 66,200 89,186" style="fill-opacity:0.8;fill:none;stroke:rgb(153,204,0);stroke-width:2;fill:none"/>
<text style="fill:rgb(0,0,0);font-family:Arial;font-size:15px" x="66" y="200"><tspan x="66" y="200">2 m/s</tspan><tspan x="66" y="210">1 rad/s</tspan></text>
<circle cx="160" cy="333" r="5" style="fill-opacity:0.5;fill:rgb(153,204,0);stroke:rgb(153,204,0);stroke-width:2"/>
<polyline points="139,316 160,333 134,342" style="fill-opacity:0.8;fill:none;stroke:rgb(153,204,0);stroke-width:2;fill:none"/>
<text style="fill:rgb(0,0,0);font-family:Arial;font-size:15px" x="160" y="333"><tspan x="160" y="333">2 m/s</tspan><tspan x="160" y="343">1 rad/s</tspan></text>
</svg>
