<?xml version="1.0" standalone="no"?>
<!DOCTYPE svg PUBLIC "-//W3C//DTD SVG 1.1//EN"
"http://www.w3.org/Graphics/SVG/1.1/DTD/svg11.dtd">
<svg width="100%" height="100%" version="1.1"
xmlns="http://www.w3.org/2000/svg">
<g fill-rule="evenodd"><path d="M 0,400 L 400,400 L 400,0 L 0,0 z " style="fill-opacity:1.0;fill:none;stroke:rgb(0,0,0);stroke-width:5"/></g>
<g fill-rule="evenodd"><path d="M 106,280 L 160,253 L 160,280 z " style="fill-opacity:1.0;fill:rgb(153,153,153)"/></g>
<g fill-rule="evenodd"><path d="M 133,266 L 266,133 L 333,66 z " style="fill-opacity:0.8;fill:none;stroke:rgb(0,0,255);stroke-width:2"/></g>
<text style="fill:rgb(0,0,0);font-family:Arial;font-size:15px" x="133" y="266">0.75 m/s</text>
<g fill-rule="evenodd"><path d="M 66,280 L 66,253 L 93,253 L 93,280 z " style="fill-opacity:1.0;fill:rgb(153,153,153)"/></g>
<g fill-rule="evenodd"><path d="M 80,266 L 213,133 L 146,66 z " style="fill-opacity:0.8;fill:none;stroke:rgb(0,0,255);stroke-width:2"/></g>
<text style="fill:rgb(0,0,0);font-family:Arial;font-size:15px" x="80" y="266">0.75 m/s</text>
<g fill-rule="evenodd"><path d="M 120,320 L 160,293 L 160,333 z " style="fill-opacity:1.0;fill:rgb(153,153,153)"/></g>
<g fill-rule="evenodd"><path d="M 133,306 L 266,173 L 333,240 z " style="fill-opacity:0.8;fill:none;stroke:rgb(0,0,255);stroke-width:2"/></g>
<text style="fill:rgb(0,0,0);font-family:Arial;font-size:15px" x="133" y="306">0.75 m/s</text>
<circle cx="66" cy="200" r="5" style="fill-opacity:0.5;fill:rgb(153,204,0);stroke:rgb(153,204,0);stroke-width:2"/>
<polyline points="53,223 66,200 80,223" style="fill-opacity:0.8;fill:none;stroke:rgb(153,204,0);stroke-width:2;fill:none"/>
<text style="fill:rgb(0,0,0);font-family:Arial;font-size:15px" x="66" y="200"><tspan x="66" y="200">3 m/s</tspan><tspan x="66" y="210">1.5 rad/s</tspan></text>
<circle cx="93" cy="373" r="5" style="fill-opacity:0.5;fill:rgb(153,204,0);stroke:rgb(153,204,0);stroke-width:2"/>
<polyline points="106,350 93,373 80,350" style="fill-opacity:0.8;fill:none;stroke:rgb(153,204,0);stroke-width:2;fill:none"/>
<text style="fill:rgb(0,0,0);font-family:Arial;font-size:15px" x="93" y="373"><tspan x="93" y="373">3 m/s</tspan><tspan x="93" y="383">1.5 rad/s</tspan></text>
</svg>
