<?xml version="1.0" standalone="no"?>
<!DOCTYPE svg PUBLIC "-//W3C//DTD SVG 1.1//EN"
"http://www.w3.org/Graphics/SVG/1.1/DTD/svg11.dtd">
<svg width="400" height="400" version="1.1"
xmlns="http://www.w3.org/2000/svg">
<g fill-rule="evenodd"><path d="M 0,400 L 400,400 L 400,0 L 0,0 z " style="fill-opacity:1.0;fill:none;stroke:rgb(0,0,0);stroke-width:5"/></g>
<g fill-rule="evenodd"><path d="M 106,293 L 160,266 L 160,293 z " style="fill-opacity:1.0;fill:rgb(153,153,153)"/></g>
<g fill-rule="evenodd"><path d="M 133,280 z " style="fill-opacity:0.8;fill:none;stroke:rgb(0,0,255);stroke-width:2"/></g>
<g fill-rule="evenodd"><path d="M 93,93 L 93,66 L 120,66 L 120,93 z " style="fill-opacity:1.0;fill:rgb(153,153,153)"/></g>
<g fill-rule="evenodd"><path d="M 106,80 z " style="fill-opacity:0.8;fill:none;stroke:rgb(0,0,255);stroke-width:2"/></g>
<g fill-rule="evenodd"><path d="M 80,173 L 120,146 L 120,186 z " style="fill-opacity:1.0;fill:rgb(153,153,153)"/></g>
<g fill-rule="evenodd"><path d="M 93,160 z " style="fill-opacity:0.8;fill:none;stroke:rgb(0,0,255);stroke-width:2"/></g>
<g fill-rule="evenodd"><path d="M 333,253 L 333,226 L 360,226 L 373,240 L 360,253 z " style="fill-opacity:1.0;fill:rgb(153,153,153)"/></g>
<g fill-rule="evenodd"><path d="M 346,240 z " style="fill-opacity:0.8;fill:none;stroke:rgb(0,0,255);stroke-width:2"/></g>
<g fill-rule="evenodd"><path d="M 186,280 L 186,120 L 213,93 L 213,306 z " style="fill-opacity:1.0;fill:rgb(80,80,80)"/></g>
<g fill-rule="evenodd"><path d="M 200,200 z " style="fill-opacity:0.8;fill:none;stroke:rgb(0,0,255);stroke-width:2"/></g>
<g fill-rule="evenodd"><path d="M 226,280 L 360,280 L 360,306 L 226,306 z " style="fill-opacity:1.0;fill:rgb(80,80,80)"/></g>
<g fill-rule="evenodd"><path d="M 293,293 z " style="fill-opacity:0.8;fill:none;stroke:rgb(0,0,255);stroke-width:2"/></g>
<circle cx="66" cy="200" r="5" style="fill-opacity:0.5;fill:rgb(153,204,0);stroke:rgb(153,204,0);stroke-width:2"/>
<polyline points="89,213 66,200 89,186" style="fill-opacity:0.8;fill:none;stroke:rgb(153,204,0);stroke-width:2;fill:none"/>
<text style="fill:rgb(0,0,0);font-family:Arial;font-size:15px" x="66" y="200"><tspan x="66" y="200">2 m/s</tspan><tspan x="66" y="210">1 rad/s</tspan></text>
<circle cx="133" cy="66" r="5" style="fill-opacity:0.5;fill:rgb(153,204,0);stroke:rgb(153,204,0);stroke-width:2"/>
<polyline points="146,43 133,66 120,43" style="fill-opacity:0.8;fill:none;stroke:rgb(153,204,0);stroke-width:2;fill:none"/>
<text style="fill:rgb(0,0,0);font-family:Arial;font-size:15px" x="133" y="66"><tspan x="133" y="66">2 m/s</tspan><tspan x="133" y="76">1 rad/s</tspan></text>
</svg>
